<svg width="14" height="13" viewBox="0 0 14 13" fill="none" xmlns="http://www.w3.org/2000/svg">
<path d="M3.51941 1.07333C3.70723 0.885516 3.70723 0.58102 3.51941 0.393207C3.3316 0.205438 3.02715 0.205438 2.83934 0.393207L0.97743 2.25503C0.789618 2.44284 0.789618 2.74734 0.97743 2.93515C1.07134 3.02901 1.1944 3.07601 1.31747 3.07601C1.44053 3.07601 1.5636 3.02906 1.65751 2.93515L3.51941 1.07333ZM12.8767 12.2926C12.9976 12.1716 13.0452 11.9957 13.0018 11.8303L12.3383 9.30487C12.3166 9.22242 12.2735 9.14727 12.2132 9.08702L4.8237 1.69736C4.63589 1.50959 4.33144 1.50959 4.14362 1.69736L2.28163 3.55927C2.19144 3.64946 2.14077 3.77174 2.14077 3.89931C2.14077 4.02683 2.19144 4.14916 2.28163 4.23935L9.6712 11.6289C9.73145 11.6892 9.80664 11.7323 9.88901 11.754L12.4144 12.4176C12.4548 12.4282 12.4959 12.4334 12.5366 12.4334C12.6626 12.4334 12.7854 12.3839 12.8767 12.2926ZM11.8623 11.2781L10.2593 10.8568L3.30174 3.89931L4.48362 2.71752L11.4411 9.67512L11.8623 11.2781Z" fill="#9898AF"/>
</svg>
